<svg width="28" height="28" viewBox="0 0 28 28" fill="none" xmlns="http://www.w3.org/2000/svg">
<path fill-rule="evenodd" clip-rule="evenodd" d="M11.5 13.0677L17.772 13.0714C18.4666 17.1219 15.9565 21.1667 11.0833 21.1667C7.16727 21.1667 4 17.9994 4 14.0833C4 10.1673 7.16727 7 11.0833 7C12.9958 7 14.5946 7.69819 15.8292 8.8518L13.9066 10.7036C13.3803 10.1976 12.4595 9.61072 11.0833 9.61072C8.66487 9.61072 6.69165 11.6143 6.69165 14.0833C6.69165 16.5524 8.66487 18.5559 11.0833 18.5559C13.8312 18.5559 14.8908 16.6258 15.0842 15.5677H11.5V13.0677ZM22.3333 13.0677H24V14.7344H22.3333V16.401H20.6667V14.7344H19V13.0677H20.6667V11.401H22.3333V13.0677Z" fill="white"/>
</svg>
