<svg width="28" height="28" viewBox="0 0 28 28" fill="none" xmlns="http://www.w3.org/2000/svg">
<path fill-rule="evenodd" clip-rule="evenodd" d="M24 7.92377C23.2639 8.25068 22.4731 8.47067 21.6432 8.5699C22.4908 8.06223 23.1408 7.25841 23.4469 6.29999C22.6547 6.76997 21.7762 7.1115 20.8409 7.2961C20.0924 6.49844 19.0263 6 17.8464 6C15.5803 6 13.7435 7.83762 13.7435 10.1029C13.7435 10.4244 13.7804 10.7383 13.8496 11.0375C10.4397 10.8667 7.41678 9.23295 5.39224 6.74997C5.03994 7.3561 4.83764 8.06069 4.83764 8.81374C4.83764 10.2368 5.56146 11.4929 6.66219 12.2282C5.98991 12.2067 5.35686 12.0221 4.8038 11.7152C4.8038 11.7329 4.8038 11.749 4.8038 11.7667C4.8038 13.7551 6.21759 15.4135 8.09521 15.7896C7.75138 15.8835 7.38832 15.9335 7.01372 15.9335C6.74988 15.9335 6.4922 15.9073 6.24221 15.8604C6.76449 17.4903 8.27982 18.6772 10.0751 18.7103C8.67134 19.811 6.90218 20.4671 4.97918 20.4671C4.64842 20.4671 4.32151 20.4479 3.99998 20.4094C5.81607 21.5732 7.97214 22.2525 10.2897 22.2525C17.8371 22.2525 21.9631 16.0004 21.9631 10.5783C21.9631 10.4006 21.9593 10.2237 21.9516 10.0475C22.7539 9.46833 23.45 8.74605 24 7.92377Z" fill="white"/>
</svg>
